<?xml version="1.0" encoding="UTF-8"?>
<svg xmlns="http://www.w3.org/2000/svg" version="1.1" viewBox="0 0 1920 1080">
  <!-- Generator: Adobe Illustrator 29.0.0, SVG Export Plug-In . SVG Version: 2.1.0 Build 186)  -->
  <defs>
    <style>
      .st0 {
        fill: #759c8e;
        font-family: MicrosoftYaHeiUI-Bold, 'Microsoft YaHei UI';
        font-size: 70px;
        font-weight: 700;
      }

      .st1 {
        display: none;
      }

      .st2 {
        fill: #e6e6e6;
      }
    </style>
  </defs>
  <g id="Capa_1">
    <g>
      <g>
        <polygon class="st2" points="1245.08 512.97 1198.94 474.62 1178.75 474.76 1038.34 474.59 1038.34 527.87 1263.09 527.87 1245.08 512.97"/>
        <path class="st2" d="M467.78,474.56H53.87v53.31h643.09c-65.66-33.66-144.48-53.31-229.18-53.31Z"/>
        <polygon class="st2" points="1725.55 474.76 1705.59 474.63 1659.48 512.93 1641.42 527.87 1866.17 527.87 1866.17 474.59 1725.55 474.76"/>
        <path class="st2" d="M.3,380.58v40.42h.01s467.47,0,467.47,0c123.66,0,240.19,37.87,328.12,106.63.1.08.19.16.29.24h188.59v-106.9l193.91.23,39.43-.27,61.14,50.81,67.87,56.13h210.25l67.92-56.17,61.1-50.76,39.42.26,193.89-.23v-40.39H.3Z"/>
      </g>
      <g>
        <path class="st2" d="M897.4,645.54c7.61,14.07,14.07,28.43,19.4,43.01h67.98v-147.29h-172.33c35.6,30.78,64.13,65.78,84.95,104.28Z"/>
        <polygon class="st2" points="1452.26 684.32 1279.28 541.26 1038.34 541.26 1038.34 688.55 1181.75 688.55 1181.75 616.03 1271.25 688.55 1633.16 688.55 1722.76 616.1 1722.76 688.55 1866.17 688.55 1866.17 541.26 1625.23 541.26 1452.26 684.32"/>
        <path class="st2" d="M623.63,678.75c-41.35-32.33-96.69-50.14-155.84-50.14h-216.94v59.94h384.36c-3.67-3.36-7.52-6.63-11.57-9.8Z"/>
        <path class="st2" d="M197.28,575.05h270.5c71.05,0,138.12,21.85,188.84,61.51,19.82,15.5,36.29,33.01,49.12,51.99h153.23c-26.56-58.81-75-109.83-137.82-147.29H53.87v147.29h143.41v-113.5Z"/>
        <polygon class="st2" points="1541.19 541.26 1363.32 541.26 1452.26 614.81 1541.19 541.26"/>
      </g>
      <g>
        <rect class="st2" x="1038.34" y="701.94" width="143.41" height="147.29"/>
        <polygon class="st2" points="1616.6 701.94 1287.78 701.94 1452.02 835.01 1616.6 701.94"/>
        <polygon class="st2" points="1235.31 849.23 1384.49 849.23 1235.31 728.36 1235.31 849.23"/>
        <path class="st2" d="M864.58,701.94h-150.53c15.88,27.97,24.24,58.66,24.24,90.5,0,19.48-3.15,38.53-9.21,56.79h146.01c4.34-18.43,6.62-37.41,6.62-56.79,0-31.43-6-61.8-17.12-90.5Z"/>
        <rect class="st2" x="1722.76" y="701.94" width="143.41" height="147.29"/>
        <path class="st2" d="M250.84,849.23h420.38c8.87-17.99,13.51-37.16,13.51-56.79,0-32.52-12.72-63.79-36.35-90.5H250.84v147.29Z"/>
        <rect class="st2" x="53.87" y="701.94" width="143.41" height="147.29"/>
        <path class="st2" d="M921.33,701.94c9.24,29.38,13.93,59.64,13.93,90.5,0,19.18-1.8,38.14-5.38,56.79h54.91v-147.29h-63.45Z"/>
        <polygon class="st2" points="1519.62 849.23 1669.2 849.23 1669.2 728.29 1519.62 849.23"/>
      </g>
      <g>
        <g>
          <polygon class="st2" points="197.28 974 197.28 862.62 53.87 862.62 53.87 1009.91 197.28 1009.91 197.28 1009.82 197.28 974"/>
          <path class="st2" d="M724.06,862.62c-13.5,32.11-36.34,61.37-67.44,85.69-47.57,37.21-109.53,58.73-175.66,61.26v.34h288.58c49.57-40.59,85.47-91.14,101.99-147.29h-147.47Z"/>
        </g>
        <path class="st2" d="M926.95,862.62c-6.3,26.28-16.14,51.94-29.55,76.74-13.55,25.07-30.36,48.65-50.26,70.55h137.64v-147.29h-57.83Z"/>
        <rect class="st2" x="1722.76" y="862.62" width="143.41" height="147.29"/>
        <rect class="st2" x="1038.34" y="862.62" width="143.41" height="147.29"/>
        <polygon class="st2" points="1503.06 862.62 1451.99 903.91 1401.02 862.62 1235.31 862.62 1235.31 1009.91 1669.2 1009.91 1669.2 862.62 1503.06 862.62"/>
        <path class="st2" d="M250.84,956.26h216.94c59.15,0,114.5-17.81,155.84-50.14,16.61-12.99,30.05-27.68,40.07-43.5H250.84v93.65Z"/>
      </g>
      <g>
        <path class="st2" d="M1613.83,222.42c-26.23-38.27-70.26-63.43-120.05-63.43s-93.83,25.16-120.05,63.43c-16.01,23.37-25.4,51.62-25.4,82.02,0,23.45,5.59,45.63,15.49,65.26h259.93c9.9-19.64,15.49-41.81,15.49-65.26,0-30.41-9.38-58.66-25.4-82.02ZM1524.06,335.34c-17.65,15.39-43.58,15.38-60.98-.96-18.7-17.56-17.26-47.72,3.25-63.12,16.59-12.45,38.89-12.13,55.25.61,19.98,15.56,21.82,46.6,2.48,63.46ZM1739.99,305.7c-.4-1.81-2.47-8.57-3.27-10-.28-.51-1.12-.51-1.3-1.16-.17-.65.63-1.39.64-2.26.05-3.13-1.93-8.31-4.89-9.82-5.91-3.01-22.27-4.44-25.83-9.22-2.04-2.75-1.77-7.53,1.22-9.46,1.02-.66,2.58-.89,3.58-1.43.56-.3.96-1.07,1.38-1.29.69-.36.16.89.41,1.56.22.59.59,1.22,1.18,1.52,1.11.57,7.17,1.92,8.44,1.93.8,0,1.52-.36,2.31-.36,1.89,0,5.3.32,6.95-.06.33-.07,2.43-1.82,2.6-2.07.47-.7.36-1.11.16-1.87-.17-.65-2.25-5.75-2.54-6.15-.42-.57-1.1-.41-1.34-.74-.34-.48-.88-3.15-1.24-4.03-1.75-4.23-2.12-7.05-7-8.02-6.64-1.32-14.78-.69-21.38-2.33-4.81-1.19-7.87-6.43-5.02-10.9.99-1.55,2.17-1.87,3.6-2.74.78-.47,1.16-1.87,1.98-.61.32.49.28,1.55.92,1.75.4.13,2.95.35,3.61.39,6.26.4,12.18-1.36,18.2-2.69.31-.43-.36-1.71-1.39-3.24-1.86-2.76-4.9-6.34-5.56-7.33-1.66-2.48-3.6-7.55-6.32-8.7-3.41-1.45-10.38.04-14.27.24-3.1.16-8.48.68-11.32.31-4.82-.63-7.65-4.88-6.28-9.56.69-2.37,3.11-3.33,4.58-5.1.32.71.45,1.57,1.32,1.86,2.86-.58,6.05-.27,8.86-1.03,1.24-.34,6.73-2.42,7.66-3.02,1.09-.7,3.11-3.21,2.52-4.48-.14-.3-4.2-4.67-4.49-4.87-.92-.63-1.92-.63-2.86-1.48-3.33-3.03-4.84-8.25-10.27-7.59-4.16.51-9.62,2.5-13.93,3.42-4.67.99-10.94,3.21-14.36-1.44-2.89-3.92-.94-7.84,1.83-11.08.17,0,.82,1,1.18,1.16.97.45,5.44-.88,6.68-1.32,4.42-1.58,8.31-5.04,12.63-6.9.31-.5-.32-2.19-.78-2.64-.52-.51-3.52-2.36-4.41-2.93-1.16-.75-2.9-1.34-3.95-2.06-2.2-1.5-5-4.94-7.2-6.15-1.62-.89-2.99-.52-4.63-.01-6.06,1.89-14.73,7.49-20.63,8.42-5.98.94-10.64-4.1-8.61-9.95.07-.2,1.4-2.57,1.52-2.66.12-.09.83.55,1.24.62,1.34.22,6.37-2.59,7.74-3.49,1.19-.79,6.04-4.68,6.71-5.63.28-.39,2.03-4.1,1.97-4.33-1.57-.89-3.28-2.04-4.91-2.77-2.03-.91-3.57-.92-5.58-1.77-2.79-1.17-6.71-4.33-9.69-4.01-2.18.23-10.19,6.38-12.75,7.96-1.85,1.14-6.38,4.09-8.18,4.51-4.27,1-8.84-1.14-9.54-5.69-.88-5.79,3.04-5.62,6.46-8.23.46-.35,4.19-3.74,4.37-3.97.42-.55.99-2.33,1.62-3.22.56-.78,4.82-5,3.29-6.07-1.46-1.01-7.14-1.57-9.16-2.12-2.22-.61-8.98-3.68-10.47-3.51-.56.07-1.86.67-2.37.99-4.23,2.9-14.66,15.37-19.06,16-4.57.65-8.7-1.65-9.15-6.48-.4-4.26,1.64-3.98,4.01-6.35,2.68-2.69,3.47-5.43,5.05-8.61.49-.99,3.99-6.57,3.3-7.25-2.25.08-5.04-1.08-7.19-1.04-1.02.02-1.53.62-2.64.73-3.34.31-9.31-2.05-12.46-.77-1.18.48-6.75,8.86-8.11,10.59-1.9,2.41-5.95,7.9-8.49,8.87-4.73,1.81-10.25-1.71-10.21-6.84.03-3.26,2.23-4.85,3.63-7.41,2.39-4.38,4.33-9.54,5.06-14.47-2.49.25-4.98.46-7.47.71-1.1.11-2.19.56-3.37.64-3.13.21-6.22-.32-9.34-.32-1.65.31-2.31,1.24-3.12,2.55-3.12,5.05-6.5,15.73-10.4,19.64-4.39,4.39-12.29,1.72-12.71-4.67-.27-4.12,2.37-7.14,3.44-10.94.53-1.89,2.02-9.22,1.53-10.73-.35-1.05-4.29-.29-5.31-.06-2.17.48-2.73,1.31-4.32,2.02-2.72,1.21-10.71,1.82-12.2,3.16-1.12,1-1.9,5.94-2.4,7.62-1.04,3.47-3.9,14.53-6.27,16.43-5.36,4.29-13.45-.11-12.5-6.82.75-5.24,2.47-9.2,2.3-15.04-.02-.58-.52-4.33-.69-4.47-.25-.21-1.87-.03-2.32.11-.64.2-1.12.95-1.75,1.26-4.98,2.5-9.9,4.61-15.36,5.92-1.09,1.15-1.46,2.11-1.81,3.62-1.26,5.47-1.28,12.22-2.15,17.88-.37,2.37-.56,4.52-2.51,6.17-4.02,3.42-9.69,2.01-11.97-2.62-1.54-3.13-.33-3.6-.17-6.52.26-4.53-.45-9.62-1.7-13.98-1.01-3.51-2.01-1.43-3.91-.31-2.76,1.62-3.64,2.55-5.97,4.39-1.95,1.54-8.83,4.4-9.54,6.15-.85,2.09.02,6.18.09,8.41.06,2-.11,4.02-.01,6.02.16,3.42,1.66,8.85-.2,11.82-2.12,3.4-7.13,4.27-10.46,2.17-.63-.4-3.59-3.56-3.86-4.15-.56-1.22.06-2.83-.03-4.05-.14-1.85-.56-4.78-1.04-6.56-.27-.97-3.4-8.77-3.8-9.06-1.18-.85-5.9,4.85-6.98,5.82-2.49,2.25-5.65,4.2-8.02,6.34-.71.64-1.29,1.18-1.52,2.15-1.4,5.86,4.8,17.11,5.19,23.9.29,5.09-5.12,8.14-9.67,6.66-1.39-.45-5.21-3.08-5.61-4.4-.94-3.08-1.08-6.21-2.61-9.41-.72-1.5-3.51-6.33-4.47-7.55-.61-.78-1.31-1.21-2.19-.52-.93,1.75-3.18,3.26-4.16,4.85-.59.96-.63,1.95-1.52,3.15-2.29,3.1-7.62,6.78-6.65,11.05.96,4.23,5.75,11.55,7.57,16.13.93,2.33,2.24,5.13,1.52,7.65-.86,3.04-4.94,5.23-8,4.87-1.13-.13-5.35-2.22-5.96-3.08-.38-.53-.46-2.46-.82-3.52-.52-1.55-2.04-3.97-3.02-5.32-.81-1.13-7.45-8.58-8.04-8.68-1.12-.2-3.89,4.89-4.3,5.98-.3.82-.17,1.75-.58,2.76-2.37,5.88-7.84,7.39-3.85,15.04,2.96,5.69,9.55,11.77,11.91,17.8,1.24,3.17-.16,6.24-3.19,7.74-2.9,1.44-7.77.76-10.22-1.25-.56-.46-.56-1.7-.96-2.47-.55-1.06-3.42-4.86-4.29-5.73-.6-.6-9.19-7.55-9.67-7.18-.73,2.44-1.84,4.82-2.6,7.26-.22.72.04,1.64-.22,2.45-1.09,3.39-4.08,8.5-3.38,12.02.64,3.22,3.73,5.02,5.88,7.14,2.08,2.06,4.23,4.16,6.34,6.35.73.76,2.53,2.61,3.96,4.28,1.02,1.19,1.85,2.28,1.96,2.82.97,4.69-3.21,8.58-7.72,8.41-.58-.02-4.48-.84-4.99-1.05-.75-.31-.92-1.59-1.43-2.25-1.25-1.62-4.73-4.47-6.48-5.54-.5-.3-2.45-1.36-4.43-2.41-2.23-1.17-4.51-2.33-4.84-2.38-1.65-.25-1.18,1.52-1.44,1.94-.02.03-.52-.25-.65-.15-.1.08-.17.29-.23.58-.32,1.66-.01,6.22-.11,7.41-.31,4.03-1.79,8.24-.06,12.43.37.9,1.36,1.93,2.1,2.57,1.63,1.42,4.66,3.49,6.54,4.81,3.74,2.63,12.22,6.55,13.05,11.32.71,4.08-2.48,7.66-6.43,8.1-.96.11-3.81.16-4.67,0-.8-.16-1.95-2.05-2.87-2.81-.99-.83-3.69-2.57-4.86-3.15-3.61-1.79-8.32-2.64-12.14-4.05,0,2.41-.53,4.76-.35,7.19.3,3.98.27,8.03.69,12,.66,6.33,5.59,6.59,10.41,8.95,3.34,1.64,12.98,5.73,14.76,8.27,2.05,2.92,1.41,6.74-1.36,8.95-2.29,1.83-5.25,1.2-7.63,2.71-.82-2.6-3.77-3.58-6.18-4.49-4.84-1.81-10.1-1.84-15.15-2.84-.39,1.11-1.8,2.05-1.89,3.49-.13,2.11,2.02,4.65,2.28,6.76,1.98,1.41,1.73,3.99,2.49,6.19.84,2.44,2.36,6.15,4.71,7.31,5.87,2.91,21.41,4.06,25.11,8.6,2.98,3.65,1.19,8.38-2.73,10.32-.54.27-4.44,1.98-4.7,1.98-.97.01-1.13-1.34-1.86-1.71-1.03-.51-6.49-1.72-7.8-1.86-2.67-.27-8.95-.04-11.66.28-.36.04-.77,0-1.01.33-.91,1.26,2.95,7.65,3.6,9.14,1.88,4.34,3.34,11.88,8.87,12.83,6.94,1.2,15.89.59,22.46,2.25,2.36.59,4.05,2.12,4.89,4h56.98c-9.03-19.92-14.06-42.01-14.06-65.26,0-30,8.37-58.08,22.9-82.02,27.83-45.87,78.24-76.58,135.7-76.58s107.87,30.71,135.7,76.58c14.53,23.95,22.9,52.03,22.9,82.02,0,23.25-5.03,45.35-14.06,65.26h89.04c0-3.35.48-5.77-2.34-8.31-5.04-4.55-13.47-8.12-18.52-13.2-3.34-3.36-2.92-9.67,1.94-11.1,1.05-.31,6.22-.58,6.76.07.38.45.24,1.49.84,2.16,2.66,2.98,11.35,6.14,15.27,7.09,1.78.43,2.98.35,4.27-1.21.83-1.01.14-1.41.12-2.51-.03-2.84-.45-4.78-.65-7.36-.32-4.35.93-10.28-3.23-13.13-5.99-4.11-16.14-6.18-21.93-10.8-3.68-2.93-3.16-9.39,1.38-11.2.94-.37,3.98-1.14,4.85-1.02,1.4.2,1.01,1.2,1.42,1.92.32.56,6.19,3.23,7.16,3.53,2.8.86,7.35,1.11,10.43,1.59,1.58.25,3.1.97,4.93.58.03-.37,0-.73-.08-1.09Z"/>
        <g>
          <rect class="st2" x="153.67" y="331.7" width="78.86" height="38.01"/>
          <path class="st2" d="M73.7,244.66c10.93-3.83,36.31-3.19,46.99,1.72,8.75,4.02,20.84,20.35,20.84,29.72v25.32h104.44c3.22-19.72-2.57-43.8.75-61.66,2.38-12.79,26.96-9.85,37.33-9.13,54.23,3.8,108.66,38.39,160.77,52.53l-74.78-71.79c-30.12-27.14-74.59-56.66-116.2-59.71-36.24-2.66-75.72,2.15-112.3.1.65,34.29-33.96,39.95-61.5,36.21-19.91-2.7-39.97-38.24-50.73-38.24H0v131.43h29.32c8.77,0,31.27-31.89,44.39-36.49Z"/>
        </g>
        <path class="st2" d="M493.51,250.54l.74,119.17h21.19l-.84-122.69c.22-6.76,5.41-16.69,8.19-24.6.96-2.72,1.64-5.2,1.72-7.23l-11.38-63.08c-1.76-3.87-17.89-3.63-19.98.13-2.81,21.81-8.36,43.51-9.77,65.35.49,1.62,1.02,3.24,1.57,4.84,3.18,9.29,7.11,18.4,8.55,28.12Z"/>
        <path class="st2" d="M1143.95,277.88c16.15,22.37,12.06,59.17,10.97,91.83h47.18c.19-21.11.64-42.1,1.52-62.87.75-17.47,2.49-30.76,11.09-46.19,7.96-14.27,21.36-24.7,26.29-38.23,2.58-7.06,2.85-14.97-1.17-24.7-4.67-11.29-30.99-43.34-42.06-47.81-1.83-.74-9.02-2.42-8.64.76,1.81,15.09,9.84,32.02,12.33,47.3-.11,10.84-21.58,21.77-31.05,22.87-8.82,1.03-25.5-.27-29.28-9.76-5.1-12.79-6.21-29.49-11.5-42.45-.5-1.24.74-1.86-1.75-1.58-8.35.94-13.22,24.07-14.68,31.41-1.36,6.86-2.7,15.45-3,23.96-.32,9.05.51,18.03,3.74,24.8,5.74,12.03,21.55,18.96,30,30.66Z"/>
        <path class="st2" d="M586.08,239.14v48.61c0,4.02,9.79,11.75,14.49,10.56l417.53-.51c3.54-.51,10.99-8.05,10.99-11.06v-47.61h14.03v88.2l-238.77,37.36c-3.93,1.04-6.78,2.69-8.8,5h180.02l86.82-13.57c5.7-1.23,8.96-5.06,11.8-9.75v-128.29c-2.12-3.63-8.14-10.02-12.53-10.02h-32.57v-46.61c0-3.69-7.09-11.35-11.21-11.84-140.26-.97-281.14-1.48-421.34.25-3.04.26-10.46,7.22-10.46,9.58v48.61c-12.6-1.1-25.73,1.3-25.11,16.57.59,14.48,13.5,15.43,25.11,14.5Z"/>
        <path class="st2" d="M1912.43,149.3l-105.18.91-4.32,1.93c-3.88,5.14,13.51,24.77,13.33,32.58-5.39,1.88-26.31,17.79-26.38,21.5-.05,2.75,4.23,9.52,8.42,16.2,3.5,5.59,6.94,11.11,7.71,14.17-.65,3.76-25.46,16.6-26.46,21.03-1.9,8.4,16.88,28.52,16.27,31.96-2.13,5.1-26.19,19.29-26.5,20.95-1.76,9.61,13.82,24.28,15.55,33.53-.52,4-23.74,16.61-27.17,23.17l1.44,2.48h160l.86-216.14-7.57-4.27Z"/>
      </g>
    </g>
  </g>
  <g id="Multiservicios" class="st1">
    <text class="st0" transform="translate(247.99 938.66) scale(1.8 1.67)"><tspan x="0" y="0">MULTISERVICIOS, LLC</tspan></text>
  </g>
</svg>