<?xml version="1.0" encoding="UTF-8"?>
<svg id="Capa_1" xmlns="http://www.w3.org/2000/svg" version="1.1" viewBox="0 0 1920 1080">
  <!-- Generator: Adobe Illustrator 29.0.0, SVG Export Plug-In . SVG Version: 2.1.0 Build 186)  -->
  <defs>
    <style>
      .st0, .st1 {
        isolation: isolate;
      }

      .st0, .st2 {
        display: none;
      }

      .st3 {
        opacity: .1;
      }

      .st1 {
        fill: #759c8e;
        font-family: MicrosoftYaHeiUI-Bold, 'Microsoft YaHei UI';
        font-size: 116.9px;
        font-weight: 700;
      }

      .st4 {
        fill: #e6e6e6;
      }
    </style>
  </defs>
  <g id="Capa_11" data-name="Capa_1" class="st3">
    <g>
      <g>
        <polygon class="st4" points="1245.1 513 1198.9 474.6 1178.8 474.8 1038.3 474.6 1038.3 527.9 1263.1 527.9 1245.1 513"/>
        <path class="st4" d="M467.8,474.6H53.9v53.3h643.1c-65.7-33.7-144.5-53.3-229.2-53.3h0Z"/>
        <polygon class="st4" points="1725.6 474.8 1705.6 474.6 1659.5 512.9 1641.4 527.9 1866.2 527.9 1866.2 474.6 1725.6 474.8"/>
        <path class="st4" d="M.3,380.6v40.4h467.5c123.7,0,240.2,37.9,328.1,106.6,0,0,.2.2.3.2h188.6v-106.9l193.9.2,39.4-.3,61.1,50.8,67.9,56.1h210.2l67.9-56.2,61.1-50.8,39.4.3,193.9-.2v-40.4H.3Z"/>
      </g>
      <g>
        <path class="st4" d="M897.4,645.5c7.6,14.1,14.1,28.4,19.4,43h68v-147.3h-172.3c35.6,30.8,64.1,65.8,85,104.3h0Z"/>
        <polygon class="st4" points="1452.3 684.3 1279.3 541.3 1038.3 541.3 1038.3 688.5 1181.8 688.5 1181.8 616 1271.2 688.5 1633.2 688.5 1722.8 616.1 1722.8 688.5 1866.2 688.5 1866.2 541.3 1625.2 541.3 1452.3 684.3"/>
        <path class="st4" d="M623.6,678.7c-41.3-32.3-96.7-50.1-155.8-50.1h-216.9v59.9h384.4c-3.7-3.4-7.5-6.6-11.6-9.8h0Z"/>
        <path class="st4" d="M197.3,575h270.5c71.1,0,138.1,21.8,188.8,61.5,19.8,15.5,36.3,33,49.1,52h153.2c-26.6-58.8-75-109.8-137.8-147.3H53.9v147.3h143.4v-113.5Z"/>
        <polygon class="st4" points="1541.2 541.3 1363.3 541.3 1452.3 614.8 1541.2 541.3"/>
      </g>
      <g>
        <rect class="st4" x="1038.3" y="701.9" width="143.4" height="147.3"/>
        <polygon class="st4" points="1616.6 701.9 1287.8 701.9 1452 835 1616.6 701.9"/>
        <polygon class="st4" points="1235.3 849.2 1384.5 849.2 1235.3 728.4 1235.3 849.2"/>
        <path class="st4" d="M864.6,701.9h-150.5c15.9,28,24.2,58.7,24.2,90.5s-3.2,38.5-9.2,56.8h146c4.3-18.4,6.6-37.4,6.6-56.8,0-31.4-6-61.8-17.1-90.5h0Z"/>
        <rect class="st4" x="1722.8" y="701.9" width="143.4" height="147.3"/>
        <path class="st4" d="M250.8,849.2h420.4c8.9-18,13.5-37.2,13.5-56.8,0-32.5-12.7-63.8-36.3-90.5H250.8v147.3Z"/>
        <rect class="st4" x="53.9" y="701.9" width="143.4" height="147.3"/>
        <path class="st4" d="M921.3,701.9c9.2,29.4,13.9,59.6,13.9,90.5s-1.8,38.1-5.4,56.8h54.9v-147.3h-63.5Z"/>
        <polygon class="st4" points="1519.6 849.2 1669.2 849.2 1669.2 728.3 1519.6 849.2"/>
      </g>
      <g>
        <g>
          <polygon class="st4" points="197.3 974 197.3 862.6 53.9 862.6 53.9 1009.9 197.3 1009.9 197.3 1009.8 197.3 974"/>
          <path class="st4" d="M724.1,862.6c-13.5,32.1-36.3,61.4-67.4,85.7-47.6,37.2-109.5,58.7-175.7,61.3v.3h288.6c49.6-40.6,85.5-91.1,102-147.3h-147.5,0Z"/>
        </g>
        <path class="st4" d="M927,862.6c-6.3,26.3-16.1,51.9-29.5,76.7-13.5,25.1-30.4,48.7-50.3,70.5h137.6v-147.3h-57.8Z"/>
        <rect class="st4" x="1722.8" y="862.6" width="143.4" height="147.3"/>
        <rect class="st4" x="1038.3" y="862.6" width="143.4" height="147.3"/>
        <polygon class="st4" points="1503.1 862.6 1452 903.9 1401 862.6 1235.3 862.6 1235.3 1009.9 1669.2 1009.9 1669.2 862.6 1503.1 862.6"/>
        <path class="st4" d="M250.8,956.3h216.9c59.1,0,114.5-17.8,155.8-50.1,16.6-13,30-27.7,40.1-43.5H250.8v93.7h0Z"/>
      </g>
      <g>
        <path class="st4" d="M1613.8,222.4c-26.2-38.3-70.3-63.4-120.1-63.4s-93.8,25.2-120.1,63.4c-16,23.4-25.4,51.6-25.4,82s5.6,45.6,15.5,65.3h259.9c9.9-19.6,15.5-41.8,15.5-65.3s-9.4-58.7-25.4-82h0ZM1524.1,335.3c-17.7,15.4-43.6,15.4-61-1-18.7-17.6-17.3-47.7,3.2-63.1,16.6-12.5,38.9-12.1,55.2.6,20,15.6,21.8,46.6,2.5,63.5h0ZM1740,305.7c-.4-1.8-2.5-8.6-3.3-10-.3-.5-1.1-.5-1.3-1.2-.2-.6.6-1.4.6-2.3,0-3.1-1.9-8.3-4.9-9.8-5.9-3-22.3-4.4-25.8-9.2-2-2.8-1.8-7.5,1.2-9.5,1-.7,2.6-.9,3.6-1.4.6-.3,1-1.1,1.4-1.3.7-.4.2.9.4,1.6.2.6.6,1.2,1.2,1.5,1.1.6,7.2,1.9,8.4,1.9.8,0,1.5-.4,2.3-.4,1.9,0,5.3.3,6.9,0,.3,0,2.4-1.8,2.6-2.1.5-.7.4-1.1.2-1.9-.2-.6-2.2-5.8-2.5-6.1-.4-.6-1.1-.4-1.3-.7-.3-.5-.9-3.1-1.2-4-1.8-4.2-2.1-7.1-7-8-6.6-1.3-14.8-.7-21.4-2.3-4.8-1.2-7.9-6.4-5-10.9,1-1.6,2.2-1.9,3.6-2.7.8-.5,1.2-1.9,2-.6.3.5.3,1.6.9,1.8.4.1,2.9.4,3.6.4,6.3.4,12.2-1.4,18.2-2.7.3-.4-.4-1.7-1.4-3.2-1.9-2.8-4.9-6.3-5.6-7.3-1.7-2.5-3.6-7.6-6.3-8.7-3.4-1.4-10.4,0-14.3.2-3.1.2-8.5.7-11.3.3-4.8-.6-7.7-4.9-6.3-9.6.7-2.4,3.1-3.3,4.6-5.1.3.7.4,1.6,1.3,1.9,2.9-.6,6.1-.3,8.9-1,1.2-.3,6.7-2.4,7.7-3,1.1-.7,3.1-3.2,2.5-4.5-.1-.3-4.2-4.7-4.5-4.9-.9-.6-1.9-.6-2.9-1.5-3.3-3-4.8-8.2-10.3-7.6-4.2.5-9.6,2.5-13.9,3.4-4.7,1-10.9,3.2-14.4-1.4-2.9-3.9-.9-7.8,1.8-11.1.2,0,.8,1,1.2,1.2,1,.4,5.4-.9,6.7-1.3,4.4-1.6,8.3-5,12.6-6.9.3-.5-.3-2.2-.8-2.6-.5-.5-3.5-2.4-4.4-2.9-1.2-.8-2.9-1.3-3.9-2.1-2.2-1.5-5-4.9-7.2-6.1-1.6-.9-3-.5-4.6,0-6.1,1.9-14.7,7.5-20.6,8.4-6,.9-10.6-4.1-8.6-9.9,0-.2,1.4-2.6,1.5-2.7s.8.6,1.2.6c1.3.2,6.4-2.6,7.7-3.5,1.2-.8,6-4.7,6.7-5.6.3-.4,2-4.1,2-4.3-1.6-.9-3.3-2-4.9-2.8-2-.9-3.6-.9-5.6-1.8-2.8-1.2-6.7-4.3-9.7-4-2.2.2-10.2,6.4-12.8,8-1.8,1.1-6.4,4.1-8.2,4.5-4.3,1-8.8-1.1-9.5-5.7-.9-5.8,3-5.6,6.5-8.2.5-.3,4.2-3.7,4.4-4,.4-.6,1-2.3,1.6-3.2.6-.8,4.8-5,3.3-6.1-1.5-1-7.1-1.6-9.2-2.1-2.2-.6-9-3.7-10.5-3.5-.6,0-1.9.7-2.4,1-4.2,2.9-14.7,15.4-19.1,16-4.6.7-8.7-1.7-9.2-6.5-.4-4.3,1.6-4,4-6.3,2.7-2.7,3.5-5.4,5.1-8.6.5-1,4-6.6,3.3-7.2-2.2,0-5-1.1-7.2-1-1,0-1.5.6-2.6.7-3.3.3-9.3-2.1-12.5-.8-1.2.5-6.8,8.9-8.1,10.6-1.9,2.4-5.9,7.9-8.5,8.9-4.7,1.8-10.2-1.7-10.2-6.8,0-3.3,2.2-4.8,3.6-7.4,2.4-4.4,4.3-9.5,5.1-14.5-2.5.2-5,.5-7.5.7-1.1.1-2.2.6-3.4.6-3.1.2-6.2-.3-9.3-.3-1.7.3-2.3,1.2-3.1,2.6-3.1,5.1-6.5,15.7-10.4,19.6-4.4,4.4-12.3,1.7-12.7-4.7-.3-4.1,2.4-7.1,3.4-10.9.5-1.9,2-9.2,1.5-10.7-.3-1.1-4.3-.3-5.3,0-2.2.5-2.7,1.3-4.3,2-2.7,1.2-10.7,1.8-12.2,3.2-1.1,1-1.9,5.9-2.4,7.6-1,3.5-3.9,14.5-6.3,16.4-5.4,4.3-13.4-.1-12.5-6.8.8-5.2,2.5-9.2,2.3-15,0-.6-.5-4.3-.7-4.5-.2-.2-1.9,0-2.3.1-.6.2-1.1.9-1.8,1.3-5,2.5-9.9,4.6-15.4,5.9-1.1,1.2-1.5,2.1-1.8,3.6-1.3,5.5-1.3,12.2-2.2,17.9-.4,2.4-.6,4.5-2.5,6.2-4,3.4-9.7,2-12-2.6-1.5-3.1-.3-3.6-.2-6.5.3-4.5-.4-9.6-1.7-14-1-3.5-2-1.4-3.9-.3-2.8,1.6-3.6,2.6-6,4.4-1.9,1.5-8.8,4.4-9.5,6.2-.8,2.1,0,6.2,0,8.4,0,2-.1,4,0,6,.2,3.4,1.7,8.8-.2,11.8-2.1,3.4-7.1,4.3-10.5,2.2-.6-.4-3.6-3.6-3.9-4.2-.6-1.2,0-2.8,0-4.1-.1-1.8-.6-4.8-1-6.6-.3-1-3.4-8.8-3.8-9.1-1.2-.8-5.9,4.8-7,5.8-2.5,2.2-5.7,4.2-8,6.3-.7.6-1.3,1.2-1.5,2.2-1.4,5.9,4.8,17.1,5.2,23.9.3,5.1-5.1,8.1-9.7,6.7-1.4-.4-5.2-3.1-5.6-4.4-.9-3.1-1.1-6.2-2.6-9.4-.7-1.5-3.5-6.3-4.5-7.6-.6-.8-1.3-1.2-2.2-.5-.9,1.8-3.2,3.3-4.2,4.8-.6,1-.6,1.9-1.5,3.1-2.3,3.1-7.6,6.8-6.7,11.1,1,4.2,5.8,11.6,7.6,16.1.9,2.3,2.2,5.1,1.5,7.6-.9,3-4.9,5.2-8,4.9-1.1-.1-5.3-2.2-6-3.1-.4-.5-.5-2.5-.8-3.5-.5-1.6-2-4-3-5.3-.8-1.1-7.4-8.6-8-8.7-1.1-.2-3.9,4.9-4.3,6-.3.8-.2,1.8-.6,2.8-2.4,5.9-7.8,7.4-3.8,15,3,5.7,9.6,11.8,11.9,17.8,1.2,3.2-.2,6.2-3.2,7.7-2.9,1.4-7.8.8-10.2-1.2-.6-.5-.6-1.7-1-2.5-.6-1.1-3.4-4.9-4.3-5.7-.6-.6-9.2-7.6-9.7-7.2-.7,2.4-1.8,4.8-2.6,7.3-.2.7,0,1.6-.2,2.4-1.1,3.4-4.1,8.5-3.4,12,.6,3.2,3.7,5,5.9,7.1,2.1,2.1,4.2,4.2,6.3,6.4.7.8,2.5,2.6,4,4.3,1,1.2,1.8,2.3,2,2.8,1,4.7-3.2,8.6-7.7,8.4-.6,0-4.5-.8-5-1.1-.8-.3-.9-1.6-1.4-2.2-1.2-1.6-4.7-4.5-6.5-5.5-.5-.3-2.4-1.4-4.4-2.4-2.2-1.2-4.5-2.3-4.8-2.4-1.7-.2-1.2,1.5-1.4,1.9,0,0-.5-.2-.7-.1,0,0-.2.3-.2.6-.3,1.7,0,6.2-.1,7.4-.3,4-1.8,8.2,0,12.4.4.9,1.4,1.9,2.1,2.6,1.6,1.4,4.7,3.5,6.5,4.8,3.7,2.6,12.2,6.5,13.1,11.3.7,4.1-2.5,7.7-6.4,8.1-1,.1-3.8.2-4.7,0-.8-.2-1.9-2-2.9-2.8-1-.8-3.7-2.6-4.9-3.1-3.6-1.8-8.3-2.6-12.1-4,0,2.4-.5,4.8-.3,7.2.3,4,.3,8,.7,12,.7,6.3,5.6,6.6,10.4,9,3.3,1.6,13,5.7,14.8,8.3,2.1,2.9,1.4,6.7-1.4,9-2.3,1.8-5.2,1.2-7.6,2.7-.8-2.6-3.8-3.6-6.2-4.5-4.8-1.8-10.1-1.8-15.2-2.8-.4,1.1-1.8,2-1.9,3.5-.1,2.1,2,4.6,2.3,6.8,2,1.4,1.7,4,2.5,6.2.8,2.4,2.4,6.1,4.7,7.3,5.9,2.9,21.4,4.1,25.1,8.6,3,3.6,1.2,8.4-2.7,10.3-.5.3-4.4,2-4.7,2-1,0-1.1-1.3-1.9-1.7-1-.5-6.5-1.7-7.8-1.9-2.7-.3-8.9,0-11.7.3-.4,0-.8,0-1,.3-.9,1.3,2.9,7.6,3.6,9.1,1.9,4.3,3.3,11.9,8.9,12.8,6.9,1.2,15.9.6,22.5,2.2,2.4.6,4.1,2.1,4.9,4h57c-9-19.9-14.1-42-14.1-65.3s8.4-58.1,22.9-82c27.8-45.9,78.2-76.6,135.7-76.6s107.9,30.7,135.7,76.6c14.5,23.9,22.9,52,22.9,82s-5,45.4-14.1,65.3h89c0-3.4.5-5.8-2.3-8.3-5-4.5-13.5-8.1-18.5-13.2-3.3-3.4-2.9-9.7,1.9-11.1,1.1-.3,6.2-.6,6.8,0,.4.5.2,1.5.8,2.2,2.7,3,11.3,6.1,15.3,7.1,1.8.4,3,.4,4.3-1.2.8-1,.1-1.4.1-2.5,0-2.8-.4-4.8-.7-7.4-.3-4.4.9-10.3-3.2-13.1-6-4.1-16.1-6.2-21.9-10.8-3.7-2.9-3.2-9.4,1.4-11.2.9-.4,4-1.1,4.8-1,1.4.2,1,1.2,1.4,1.9.3.6,6.2,3.2,7.2,3.5,2.8.9,7.3,1.1,10.4,1.6,1.6.2,3.1,1,4.9.6,0-.4,0-.7,0-1.1h0Z"/>
        <g>
          <rect class="st4" x="153.7" y="331.7" width="78.9" height="38"/>
          <path class="st4" d="M73.7,244.7c10.9-3.8,36.3-3.2,47,1.7,8.8,4,20.8,20.4,20.8,29.7v25.3h104.4c3.2-19.7-2.6-43.8.8-61.7,2.4-12.8,27-9.9,37.3-9.1,54.2,3.8,108.7,38.4,160.8,52.5l-74.8-71.8c-30.1-27.1-74.6-56.7-116.2-59.7-36.2-2.7-75.7,2.1-112.3.1.6,34.3-34,39.9-61.5,36.2-19.9-2.7-40-38.2-50.7-38.2H0v131.4h29.3c8.8,0,31.3-31.9,44.4-36.5h0Z"/>
        </g>
        <path class="st4" d="M493.5,250.5l.7,119.2h21.2l-.8-122.7c.2-6.8,5.4-16.7,8.2-24.6,1-2.7,1.6-5.2,1.7-7.2l-11.4-63.1c-1.8-3.9-17.9-3.6-20,.1-2.8,21.8-8.4,43.5-9.8,65.4.5,1.6,1,3.2,1.6,4.8,3.2,9.3,7.1,18.4,8.5,28.1h0Z"/>
        <path class="st4" d="M1143.9,277.9c16.2,22.4,12.1,59.2,11,91.8h47.2c.2-21.1.6-42.1,1.5-62.9.8-17.5,2.5-30.8,11.1-46.2,8-14.3,21.4-24.7,26.3-38.2,2.6-7.1,2.8-15-1.2-24.7-4.7-11.3-31-43.3-42.1-47.8-1.8-.7-9-2.4-8.6.8,1.8,15.1,9.8,32,12.3,47.3-.1,10.8-21.6,21.8-31.1,22.9-8.8,1-25.5-.3-29.3-9.8-5.1-12.8-6.2-29.5-11.5-42.4-.5-1.2.7-1.9-1.8-1.6-8.3.9-13.2,24.1-14.7,31.4-1.4,6.9-2.7,15.4-3,24-.3,9.1.5,18,3.7,24.8,5.7,12,21.6,19,30,30.7h0Z"/>
        <path class="st4" d="M586.1,239.1v48.6c0,4,9.8,11.8,14.5,10.6l417.5-.5c3.5-.5,11-8,11-11.1v-47.6h14v88.2l-238.8,37.4c-3.9,1-6.8,2.7-8.8,5h180l86.8-13.6c5.7-1.2,9-5.1,11.8-9.8v-128.3c-2.1-3.6-8.1-10-12.5-10h-32.6v-46.6c0-3.7-7.1-11.4-11.2-11.8-140.3-1-281.1-1.5-421.3.2-3,.3-10.5,7.2-10.5,9.6v48.6c-12.6-1.1-25.7,1.3-25.1,16.6.6,14.5,13.5,15.4,25.1,14.5h0Z"/>
        <path class="st4" d="M1912.4,149.3l-105.2.9-4.3,1.9c-3.9,5.1,13.5,24.8,13.3,32.6-5.4,1.9-26.3,17.8-26.4,21.5,0,2.8,4.2,9.5,8.4,16.2,3.5,5.6,6.9,11.1,7.7,14.2-.7,3.8-25.5,16.6-26.5,21-1.9,8.4,16.9,28.5,16.3,32-2.1,5.1-26.2,19.3-26.5,21-1.8,9.6,13.8,24.3,15.6,33.5-.5,4-23.7,16.6-27.2,23.2l1.4,2.5h160l.9-216.1-7.6-4.3h0Z"/>
      </g>
    </g>
  </g>
  <g id="Multiservicios" class="st2">
    <g class="st0">
      <text class="st1" transform="translate(248 938.7) scale(1.1 1)"><tspan x="0" y="0">MULTISERVICIOS, LLC</tspan></text>
    </g>
  </g>
</svg>